<?xml version="1.0" encoding="UTF-8" standalone="no"?>
<!-- Generator: Adobe Illustrator 16.0.2, SVG Export Plug-In . SVG Version: 6.00 Build 0)  -->

<svg
   version="1.1"
   id="Ebene_1"
   x="0px"
   y="0px"
   width="576px"
   height="576px"
   viewBox="0 0 576 576"
   style="enable-background:new 0 0 576 576;"
   xml:space="preserve"
   xmlns="http://www.w3.org/2000/svg"
   xmlns:svg="http://www.w3.org/2000/svg"
   xmlns:rdf="http://www.w3.org/1999/02/22-rdf-syntax-ns#"
   xmlns:cc="http://creativecommons.org/ns#"
   xmlns:dc="http://purl.org/dc/elements/1.1/"><metadata
     id="metadata25"><rdf:RDF><cc:Work
         rdf:about=""><dc:format>image/svg+xml</dc:format><dc:type
           rdf:resource="http://purl.org/dc/dcmitype/StillImage" /></cc:Work></rdf:RDF></metadata><defs
     id="defs23" /><g
     id="g14798"><g
       id="g4158"
       transform="translate(-460.99193,259.44071)"><g
         id="g14363"
         transform="translate(447.59849,-334.97224)"><g
           aria-label="2"
           id="text1976"
           style="font-size:160px;line-height:1.25;font-family:'Caracteres L1';-inkscape-font-specification:'Caracteres L1, Normal';letter-spacing:0px;word-spacing:0px;stroke-width:4.04688"><g
             id="g1552"><g
               id="g14768"
               style="enable-background:new 0 0 576 576"
               transform="translate(13.39344,75.53153)"><circle
                 style="fill:#FFFFFF;stroke:#000000;stroke-width:2;stroke-linecap:round;stroke-linejoin:round;"
                 cx="287.969"
                 cy="287.969"
                 r="286.969"
                 id="circle3" /><path
                 d="M293.813,95.969h29.835c1.313,0.082,2.624,0.167,3.935,0.26l-33.77,30.604l-33.77-30.604  c1.311-0.093,2.623-0.178,3.934-0.26H293.813z M293.813,453.105l34.057,30.862h-34.057h-34.056L293.813,453.105z"
                 id="path5" /><path
                 style="fill:#FF0000;stroke:#FF0000;stroke-width:0.1764;stroke-linecap:round;stroke-linejoin:round;"
                 d="M287.969,13.986  c-151.316,0-273.982,122.667-273.982,273.982c0,151.316,122.666,273.982,273.982,273.982c151.315,0,273.981-122.666,273.981-273.982  C561.95,136.653,439.284,13.986,287.969,13.986z M287.969,480.407c-106.28,0-192.438-86.158-192.438-192.438  c0-106.28,86.157-192.438,192.438-192.438s192.438,86.157,192.438,192.438C480.406,394.25,394.248,480.407,287.969,480.407z"
                 id="path7" /></g><g
               id="g1539"><path
                 style="enable-background:new 0 0 576 576;color:#000000;fill:#000000;-inkscape-stroke:none"
                 d="m 308.67295,352.69572 h 16.282 v 4.482 c 3.075,-2.812 7.602,-4.504 13.578,-5.076 h 0.726 c 6.064,0 10.173,1.033 12.327,3.098 2.637,1.318 4.789,3.67 6.459,7.053 4.088,-6.767 9.646,-10.151 16.678,-10.151 h 5.734 c 6.372,0.791 11.009,3.055 13.909,6.79 3.647,4.087 5.976,9.69 6.987,16.81 v 45.416 h -16.414 v -42.912 c -1.318,-6.547 -4.769,-9.821 -10.349,-9.821 -6.636,-0.175 -10.415,3.517 -11.338,11.074 v 41.659 h -16.413 v -41.396 c -0.748,-7.82101 -4.396,-11.646 -10.943,-11.47001 -6.064,0.176 -9.47,3.955 -10.217,11.33801 l -0.197,41.527 h -16.941 z"
                 id="path19-4" /><path
                 d="m 247.85629,306.43021 q 7.73438,1.25 17.10938,7.89062 2.8125,2.26563 6.17187,7.10938 l 2.73438,5 1.01562,2.42187 -0.23437,0.23438 q 1.95312,5.3125 1.95312,10.15625 -0.46875,9.375 -1.71875,12.10937 -2.10937,5.625 -3.75,8.04688 l -1.79687,2.57812 -3.98438,4.375 -32.57812,32.42188 h 45.54687 v 22.34375 h -76.95312 l 0.0781,-22.57813 48.04688,-48.51562 q 2.26562,-2.73438 3.20312,-5 2.42188,-7.89063 -2.26562,-13.28125 -4.29688,-4.14063 -12.10938,-4.14063 l -4.60937,0.625 -2.10938,1.01563 -1.32812,0.0781 -2.89063,2.26563 -1.64062,1.95312 q -1.5625,2.8125 -2.10938,4.375 l -0.46875,2.73438 q -0.3125,0.85937 -0.39062,0.625 l -21.09375,0.0781 -0.15625,-0.54687 0.15625,-3.82813 0.3125,-0.46875 q 0.3125,-4.92187 3.20312,-11.01562 l 3.59375,-6.01563 2.89063,-3.20312 0.46875,-0.15625 q 8.28125,-7.42188 18.4375,-9.21875 5.9375,-1.01563 10.78125,-1.01563 3.59375,0 6.48437,0.54688 z"
                 id="path1416" /></g></g></g></g></g></g></svg>
